<svg xmlns="http://www.w3.org/2000/svg" viewBox="0 0 2560 1440" width="2560" height="1440">
	<style>
		tspan { white-space:pre }
		.shp0 { fill: #1d242c } 
		.shp1 { fill: #d94747 } 
		.shp2 { fill: #e2c360 } 
		.shp3 { fill: #71bb71 } 
	</style>
	<path id="Shape 1" class="shp0" d="M107 60L2153 60C2172.36 60 2188 75.64 2188 95L2188 1305C2188 1324.36 2172.36 1340 2153 1340L107 1340C87.64 1340 72 1324.36 72 1305L72 95C72 75.65 87.64 60 107 60Z" />
	<path id="Shape 2" class="shp1" d="M168.32 191.63C145.47 191.63 127 173.16 127 150.32C127 127.47 145.47 109 168.32 109C191.16 109 209.63 127.47 209.63 150.32C209.63 173.16 191.16 191.63 168.32 191.63Z" />
	<path id="Shape 2 copy" class="shp2" d="M285.5 191.63C262.65 191.63 244.18 173.16 244.18 150.32C244.18 127.47 262.65 109 285.5 109C308.35 109 326.82 127.47 326.82 150.32C326.82 173.16 308.35 191.63 285.5 191.63Z" />
	<path id="Shape 2 copy 2" class="shp3" d="M402.68 191.63C379.84 191.63 361.37 173.16 361.37 150.32C361.37 127.47 379.84 109 402.68 109C425.53 109 444 127.47 444 150.32C444 173.16 425.53 191.63 402.68 191.63Z" />
	<path id="$ " fill="#29313a" d="M418.75 624.08L418.75 695.51Q434.07 697.24 449.11 700.13Q464.15 702.74 477.45 707.65Q488.15 711.7 497.12 717.49Q506.08 722.98 512.45 731.08Q519.1 738.89 522.57 749.59Q526.33 760 526.33 773.88Q526.33 792.97 519.1 808.58Q512.16 824.2 498.27 835.48Q484.68 846.76 464.73 853.41Q444.77 859.77 418.75 860.35L418.75 911.83Q418.75 921.95 413.83 926.29Q409.2 930.63 398.5 930.63Q387.8 930.63 382.88 926.29Q378.26 921.95 378.26 911.83L378.26 857.17Q359.75 853.41 344.71 845.6Q329.96 837.5 317.82 825.36L317.82 841.55Q317.82 851.67 312.9 856.01Q308.27 860.35 296.13 860.35Q283.98 860.35 279.06 856.01Q274.44 851.67 274.44 841.55L274.44 772.15Q274.44 762.02 279.06 757.69Q283.98 753.35 296.13 753.35Q302.49 753.35 305.96 756.24Q309.43 759.13 311.74 765.2Q320.13 786.89 336.32 799.33Q352.52 811.77 378.26 816.1L378.26 735.42Q362.64 733.39 347.89 730.5Q333.43 727.61 320.42 722.4Q310.59 718.64 302.49 713.15Q294.39 707.65 288.32 700.13Q282.53 692.62 279.06 682.78Q275.88 672.95 275.88 660.23Q275.88 640.85 283.69 626.1Q291.5 611.06 305.09 600.94Q318.97 590.82 337.48 585.61Q356.28 580.41 378.26 580.41L378.26 533.85Q378.26 523.72 382.88 519.39Q387.8 515.05 398.5 515.05Q409.2 515.05 413.83 519.39Q418.75 523.72 418.75 533.85L418.75 584.17Q434.07 588.22 446.8 595.73Q459.52 602.96 469.64 612.22L469.64 599.21Q469.64 589.08 474.27 584.75Q479.19 580.41 491.33 580.41Q503.48 580.41 508.11 584.75Q513.02 589.08 513.02 599.21L513.02 654.15Q513.02 664.27 508.11 668.61Q503.48 672.95 491.33 672.95Q481.5 672.95 477.45 665.43Q468.2 647.79 453.45 637.96Q438.7 627.84 418.75 624.08ZM418.75 740.04L418.75 818.42Q449.69 816.97 465.02 804.82Q480.63 792.68 480.63 773.88Q480.63 763.47 473.98 757.4Q467.33 751.03 456.05 747.27Q448.24 744.67 438.7 743.23Q429.45 741.49 418.75 740.04ZM378.26 691.46L378.26 622.34Q351.36 622.92 336.32 632.75Q321.57 642.58 321.57 660.23Q321.57 669.77 327.65 675.55Q334.01 681.34 345 684.81Q351.94 687.12 360.33 688.57Q368.71 690.01 378.26 691.46Z" />
	<path id="ntl " fill="#77899e" d="M700.7 855L700.7 674.42L668.33 674.42Q662.66 674.42 658.65 673.01Q654.65 671.61 651.98 667.74Q649.64 663.88 648.3 656.85Q647.3 649.83 647.3 638.58Q647.3 627.34 648.3 620.32Q649.64 613.29 651.98 609.42Q654.65 605.21 658.65 603.8Q662.66 602.4 668.33 602.4L749.77 602.4Q761.11 602.4 765.79 607.67Q770.79 612.59 770.79 624.53L770.79 675.47Q794.15 632.61 821.86 613.64Q849.56 594.67 880.93 594.67Q903.96 594.67 922.65 602.75Q941.34 610.83 954.36 625.58Q967.37 640.34 974.38 661.77Q981.72 682.85 981.72 709.2L981.72 855L1007.42 855Q1013.1 855 1017.1 856.4Q1021.11 857.81 1023.44 862.02Q1026.11 865.89 1027.12 872.91Q1028.45 879.94 1028.45 891.18Q1028.45 902.43 1027.12 909.45Q1026.11 916.48 1023.44 920.34Q1021.11 924.21 1017.1 925.61Q1013.1 927.02 1007.42 927.02L882.6 927.02Q876.93 927.02 872.92 925.61Q868.92 924.21 866.25 920.34Q863.91 916.48 862.57 909.45Q861.57 902.43 861.57 891.18Q861.57 879.94 862.57 872.91Q863.91 865.89 866.25 862.02Q868.92 857.81 872.92 856.4Q876.93 855 882.6 855L898.29 855L898.29 729.93Q898.29 703.93 889.61 689.17Q881.26 674.42 859.24 674.42Q844.22 674.42 830.53 684.61Q817.18 694.44 806.84 711.31Q796.49 728.17 790.15 750.66Q784.14 773.14 784.14 797.73L784.14 855L799.83 855Q805.5 855 809.51 856.4Q813.51 857.81 815.85 862.02Q818.52 865.89 819.52 872.91Q820.86 879.94 820.86 891.18Q820.86 902.43 819.52 909.45Q818.52 916.48 815.85 920.34Q813.51 924.21 809.51 925.61Q805.5 927.02 799.83 927.02L675 927.02Q669.33 927.02 665.33 925.61Q661.32 924.21 658.65 920.34Q656.31 916.48 654.98 909.45Q653.98 902.43 653.98 891.18Q653.98 879.94 654.98 872.91Q656.31 865.89 658.65 862.02Q661.32 857.81 665.33 856.4Q669.33 855 675 855L700.7 855ZM1096.95 699.01L1032.53 699.01Q1026.86 699.01 1022.85 697.25Q1018.85 695.5 1016.18 691.28Q1013.84 687.07 1012.51 680.04Q1011.5 672.66 1011.5 661.42Q1011.5 650.18 1012.51 642.8Q1013.84 635.42 1016.18 631.21Q1018.85 626.99 1022.85 625.23Q1026.86 623.48 1032.53 623.48L1096.95 623.48L1096.95 524.4Q1096.95 512.46 1106.96 507.54Q1116.97 502.27 1141 502.27Q1153.02 502.27 1160.36 503.68Q1168.04 504.73 1172.37 507.54Q1177.05 510 1178.72 514.22Q1180.38 518.43 1180.38 524.4L1180.38 623.48L1304.21 623.48Q1309.88 623.48 1313.89 625.23Q1317.89 626.99 1320.23 631.21Q1322.9 635.42 1323.9 642.8Q1325.23 650.18 1325.23 661.42Q1325.23 672.66 1323.9 680.04Q1322.9 687.07 1320.23 691.28Q1317.89 695.5 1313.89 697.25Q1309.88 699.01 1304.21 699.01L1180.38 699.01L1180.38 796.68Q1180.38 827.24 1191.4 841.3Q1202.75 855 1223.44 855Q1231.78 855 1241.79 852.89Q1252.14 850.43 1262.82 846.57Q1273.5 842.7 1284.85 837.78Q1296.2 832.86 1307.21 827.59Q1312.22 825.13 1316.89 824.78Q1321.9 824.08 1326.23 826.54Q1330.91 828.65 1334.91 834.62Q1339.25 840.24 1343.26 850.78Q1351.27 871.51 1348.6 882.05Q1346.26 892.59 1335.25 898.21Q1304.87 914.37 1274.84 924.56Q1245.13 934.75 1216.1 934.75Q1157.69 934.75 1127.32 901.02Q1096.95 867.29 1096.95 801.25L1096.95 699.01ZM1494.52 855L1494.52 538.11L1416.76 538.11Q1411.08 538.11 1407.08 536.7Q1403.07 535.3 1400.4 531.43Q1398.07 527.57 1396.73 520.54Q1395.73 513.51 1395.73 502.27Q1395.73 491.03 1396.73 484Q1398.07 476.98 1400.4 473.11Q1403.07 468.9 1407.08 467.49Q1411.08 466.09 1416.76 466.09L1556.93 466.09Q1568.28 466.09 1572.95 471.36Q1577.96 476.27 1577.96 488.22L1577.96 855L1671.75 855Q1677.42 855 1681.42 856.4Q1685.43 857.81 1687.77 862.02Q1690.44 865.89 1691.44 872.91Q1692.77 879.94 1692.77 891.18Q1692.77 902.43 1691.44 909.45Q1690.44 916.48 1687.77 920.34Q1685.43 924.21 1681.42 925.61Q1677.42 927.02 1671.75 927.02L1403.41 927.02Q1397.73 927.02 1393.73 925.61Q1389.72 924.21 1387.05 920.34Q1384.72 916.48 1383.38 909.45Q1382.38 902.43 1382.38 891.18Q1382.38 879.94 1383.38 872.91Q1384.72 865.89 1387.05 862.02Q1389.72 857.81 1393.73 856.4Q1397.73 855 1403.41 855L1494.52 855Z" />
</svg>